<svg width="431" height="416" viewBox="0 0 431 416" fill="none" xmlns="http://www.w3.org/2000/svg">
<path d="M0 0H431V415.594H0V0Z" fill="white" fill-opacity="0.01"/>
<path d="M395.083 225.113C395.083 247.965 388.525 269.34 377.125 287.584C366.528 304.541 351.747 318.794 334.161 329.012C315.241 340.004 293.074 346.328 269.375 346.328C245.676 346.328 223.509 340.004 204.589 329.012C168.083 307.801 143.667 269.207 143.667 225.113C143.667 181.02 168.083 142.426 204.589 121.215C223.509 110.222 245.676 103.898 269.375 103.898C293.074 103.898 315.241 110.222 334.161 121.215C351.747 131.433 366.528 145.686 377.125 162.643C388.525 180.886 395.083 202.262 395.083 225.113Z" fill="url(#paint0_linear_16_12)"/>
<path d="M40.3641 121.564C37.6027 121.564 35.3641 123.803 35.3641 126.564V324.328C35.3641 327.09 37.6027 329.328 40.3641 329.328H196.844C202.034 329.328 204.117 321.814 199.956 318.712C170.133 296.481 151.143 262.954 151.143 225.446C151.143 187.939 170.133 154.411 199.956 132.18C204.117 129.079 202.034 121.564 196.844 121.564H40.3641Z" fill="#D9B70D"/>
<path d="M334.161 121.215C315.241 110.222 293.074 103.898 269.375 103.898C245.676 103.898 223.509 110.222 204.589 121.215M334.161 121.215H372.125C374.886 121.215 377.125 123.453 377.125 126.215V162.643M334.161 121.215C351.747 131.433 366.528 145.686 377.125 162.643M204.589 121.215H40.9167C38.1552 121.215 35.9167 123.453 35.9167 126.215V324.012C35.9167 326.773 38.1552 329.012 40.9167 329.012H204.589M204.589 121.215C168.083 142.426 143.667 181.02 143.667 225.113C143.667 269.207 168.083 307.801 204.589 329.012M377.125 162.643C388.525 180.886 395.083 202.262 395.083 225.113C395.083 247.965 388.525 269.34 377.125 287.584M204.589 329.012C223.509 340.004 245.676 346.328 269.375 346.328C293.074 346.328 315.241 340.004 334.161 329.012M334.161 329.012H372.125C374.886 329.012 377.125 326.773 377.125 324.012V287.584M334.161 329.012C351.747 318.794 366.528 304.541 377.125 287.584" stroke="black" stroke-width="5.50215" stroke-linecap="round" stroke-linejoin="round"/>
<path d="M71.8333 82.924C71.8333 80.1626 74.0719 77.924 76.8333 77.924H147.646C150.407 77.924 152.646 80.1626 152.646 82.924V116.215C152.646 118.976 150.407 121.215 147.646 121.215H76.8333C74.0719 121.215 71.8333 118.976 71.8333 116.215V82.924Z" fill="#D9B70D" stroke="black" stroke-width="5.50215" stroke-linecap="round" stroke-linejoin="round"/>
<g filter="url(#filter0_d_16_12)">
<mask id="path-6-outside-1_16_12" maskUnits="userSpaceOnUse" x="84.7916" y="185.481" width="10" height="80" fill="black">
<rect fill="white" x="84.7916" y="185.481" width="10" height="80"/>
<path d="M89.7916 190.481V259.746Z"/>
</mask>
<path d="M94.7916 190.481C94.7916 187.719 92.5531 185.481 89.7916 185.481C87.0302 185.481 84.7916 187.719 84.7916 190.481H94.7916ZM84.7916 259.746C84.7916 262.508 87.0302 264.746 89.7916 264.746C92.5531 264.746 94.7916 262.508 94.7916 259.746H84.7916ZM84.7916 190.481V259.746H94.7916V190.481H84.7916Z" fill="black" mask="url(#path-6-outside-1_16_12)"/>
</g>
<g filter="url(#filter1_d_16_12)">
<mask id="path-8-outside-2_16_12" maskUnits="userSpaceOnUse" x="210.5" y="168.164" width="118" height="114" fill="black">
<rect fill="white" x="210.5" y="168.164" width="118" height="114"/>
<path d="M323.25 225.113C323.25 253.804 299.129 277.063 269.375 277.063ZM215.5 225.113C215.5 196.423 239.621 173.164 269.375 173.164Z"/>
</mask>
<path d="M328.25 225.113C328.25 222.352 326.011 220.113 323.25 220.113C320.489 220.113 318.25 222.352 318.25 225.113H328.25ZM269.375 272.063C266.614 272.063 264.375 274.301 264.375 277.063C264.375 279.824 266.614 282.063 269.375 282.063V272.063ZM210.5 225.113C210.5 227.875 212.739 230.113 215.5 230.113C218.261 230.113 220.5 227.875 220.5 225.113H210.5ZM269.375 178.164C272.136 178.164 274.375 175.926 274.375 173.164C274.375 170.403 272.136 168.164 269.375 168.164V178.164ZM318.25 225.113C318.25 250.873 296.541 272.063 269.375 272.063V282.063C301.718 282.063 328.25 256.736 328.25 225.113H318.25ZM220.5 225.113C220.5 199.354 242.209 178.164 269.375 178.164V168.164C237.032 168.164 210.5 193.491 210.5 225.113H220.5Z" fill="black" mask="url(#path-8-outside-2_16_12)"/>
</g>
<defs>
<filter id="filter0_d_16_12" x="80.7916" y="185.481" width="18" height="87.2657" filterUnits="userSpaceOnUse" color-interpolation-filters="sRGB">
<feFlood flood-opacity="0" result="BackgroundImageFix"/>
<feColorMatrix in="SourceAlpha" type="matrix" values="0 0 0 0 0 0 0 0 0 0 0 0 0 0 0 0 0 0 127 0" result="hardAlpha"/>
<feOffset dy="4"/>
<feGaussianBlur stdDeviation="2"/>
<feComposite in2="hardAlpha" operator="out"/>
<feColorMatrix type="matrix" values="0 0 0 0 0 0 0 0 0 0 0 0 0 0 0 0 0 0 0.25 0"/>
<feBlend mode="normal" in2="BackgroundImageFix" result="effect1_dropShadow_16_12"/>
<feBlend mode="normal" in="SourceGraphic" in2="effect1_dropShadow_16_12" result="shape"/>
</filter>
<filter id="filter1_d_16_12" x="206.5" y="168.164" width="125.75" height="121.899" filterUnits="userSpaceOnUse" color-interpolation-filters="sRGB">
<feFlood flood-opacity="0" result="BackgroundImageFix"/>
<feColorMatrix in="SourceAlpha" type="matrix" values="0 0 0 0 0 0 0 0 0 0 0 0 0 0 0 0 0 0 127 0" result="hardAlpha"/>
<feOffset dy="4"/>
<feGaussianBlur stdDeviation="2"/>
<feComposite in2="hardAlpha" operator="out"/>
<feColorMatrix type="matrix" values="0 0 0 0 0 0 0 0 0 0 0 0 0 0 0 0 0 0 0.25 0"/>
<feBlend mode="normal" in2="BackgroundImageFix" result="effect1_dropShadow_16_12"/>
<feBlend mode="normal" in="SourceGraphic" in2="effect1_dropShadow_16_12" result="shape"/>
</filter>
<linearGradient id="paint0_linear_16_12" x1="186.767" y1="134.826" x2="413.318" y2="359.167" gradientUnits="userSpaceOnUse">
<stop stop-color="#D9B70D"/>
<stop offset="1" stop-color="#736107"/>
</linearGradient>
</defs>
</svg>
